<?xml version="1.0" standalone="no"?>
<!DOCTYPE svg PUBLIC "-//W3C//DTD SVG 20010904//EN"
 "http://www.w3.org/TR/2001/REC-SVG-20010904/DTD/svg10.dtd">
<svg version="1.0" xmlns="http://www.w3.org/2000/svg"
 width="1262.000000pt" height="1280.000000pt" viewBox="0 0 1262.000000 1280.000000"
 preserveAspectRatio="xMidYMid meet">
<metadata>
Created by potrace 1.15, written by Peter Selinger 2001-2017
</metadata>
<g transform="translate(0.000000,1280.000000) scale(0.100000,-0.100000)"
fill="#000000" stroke="none">
<path d="M2466 12793 c-14 -14 -4 -39 28 -73 26 -26 49 -74 94 -195 32 -88 65
-185 72 -215 13 -57 46 -137 61 -145 4 -3 25 25 45 62 21 38 50 86 65 109 35
51 51 114 47 179 -3 46 -6 51 -64 99 -136 112 -138 113 -194 121 -62 8 -120
29 -120 43 0 12 -26 23 -34 15z"/>
<path d="M2932 12418 c-5 -7 -28 -51 -49 -98 -22 -47 -55 -108 -74 -136 -64
-92 -64 -92 -24 -244 75 -282 78 -300 79 -425 l1 -120 -37 -69 c-55 -100 -53
-106 30 -106 l69 0 17 -137 c16 -133 18 -139 50 -173 19 -19 39 -45 45 -57 6
-12 32 -35 58 -50 64 -37 147 -37 257 1 43 15 80 25 83 23 5 -5 -131 -211
-225 -341 -46 -63 -72 -108 -72 -125 0 -35 46 -203 70 -259 23 -52 162 -227
193 -243 28 -15 278 -39 412 -39 96 0 121 4 193 30 46 16 104 32 130 35 103
13 102 12 146 150 30 96 100 374 116 463 17 98 11 111 -93 195 -143 116 -326
220 -446 253 -62 18 -75 28 -43 38 9 3 89 26 177 51 338 98 465 146 483 182 5
10 14 45 21 78 7 33 23 86 37 118 31 70 74 237 74 285 0 26 -8 42 -34 66 -65
62 -142 69 -323 32 -65 -14 -179 -36 -253 -51 -74 -14 -197 -42 -274 -62 -126
-32 -185 -55 -431 -166 -97 -44 -288 -116 -294 -111 -10 9 40 36 144 80 175
73 235 102 235 113 0 6 -8 11 -17 11 -9 0 -45 5 -81 11 -72 13 -102 35 -102
75 0 15 -13 50 -29 78 -35 61 -82 220 -110 371 -19 103 -59 228 -86 268 -10
14 -14 15 -23 5z"/>
<path d="M5410 11939 c-218 -8 -256 -12 -387 -39 -199 -41 -273 -75 -273 -123
0 -54 135 -276 269 -442 l72 -90 294 4 c167 2 295 -1 295 -6 0 -5 -69 -81
-152 -169 -177 -184 -214 -243 -206 -326 4 -35 15 -64 38 -96 184 -260 258
-391 284 -502 9 -36 23 -70 33 -77 10 -8 48 -13 97 -13 64 0 94 6 141 26 33
14 92 31 130 38 39 8 111 28 160 45 50 17 110 36 133 42 57 14 120 72 163 151
34 63 34 63 32 188 -3 171 -23 254 -77 327 -51 69 -279 293 -298 293 -7 0 -19
4 -27 9 -12 8 -12 12 -2 25 9 11 31 16 68 16 58 0 116 21 136 50 18 25 51 32
94 21 35 -10 44 -19 92 -106 54 -94 76 -123 87 -112 3 3 1 48 -5 101 -6 52
-11 148 -11 213 0 103 3 126 25 178 15 37 25 80 25 111 l0 52 -47 22 c-26 12
-72 24 -102 27 -40 4 -84 20 -151 55 -57 29 -133 58 -191 73 -182 45 -308 51
-739 34z"/>
<path d="M7365 10667 c-260 -136 -380 -217 -319 -217 21 0 153 72 316 171 70
43 143 85 163 93 42 18 45 26 8 26 -16 0 -91 -33 -168 -73z"/>
<path d="M7813 10721 c-5 -3 -19 -23 -31 -43 -32 -52 -178 -187 -266 -246 -41
-28 -101 -60 -133 -71 -32 -12 -69 -28 -83 -37 -86 -53 -233 -101 -835 -275
-543 -158 -1228 -302 -1625 -344 -237 -24 -756 -55 -943 -55 -267 0 -372 18
-714 124 -115 35 -223 67 -240 71 -73 15 -26 25 122 25 99 0 155 4 155 10 0
14 -32 25 -117 40 -40 7 -73 16 -73 19 0 3 16 16 35 29 20 12 41 34 48 49 10
23 8 28 -15 48 -39 34 -177 84 -211 78 -35 -7 -97 -64 -97 -89 0 -28 10 -38
68 -74 28 -17 52 -36 52 -41 0 -24 -156 -7 -450 51 -155 31 -316 37 -420 16
-221 -45 -391 -109 -460 -175 -43 -41 -50 -70 -29 -130 16 -45 31 -34 50 37 9
34 22 69 30 78 77 94 709 185 709 103 0 -12 -32 -20 -145 -34 -298 -39 -487
-96 -553 -168 -20 -21 -22 -29 -13 -46 6 -11 16 -43 21 -70 10 -53 82 -180
187 -325 35 -50 66 -100 69 -113 3 -12 14 -25 24 -28 10 -3 26 -17 35 -31 9
-13 48 -45 88 -70 91 -58 157 -121 157 -150 0 -16 -17 -35 -58 -63 -32 -23
-65 -54 -75 -70 -30 -51 -18 -151 18 -151 9 0 15 -9 15 -21 0 -18 4 -20 33
-15 39 7 335 46 350 46 5 0 52 42 104 93 l95 92 -38 -70 c-80 -148 -106 -175
-188 -189 -21 -4 -63 -21 -93 -38 -30 -17 -74 -35 -98 -39 -23 -4 -78 -27
-120 -51 -75 -41 -80 -47 -122 -123 -51 -92 -52 -110 -6 -203 26 -53 31 -57
66 -60 24 -2 37 -8 37 -18 0 -8 10 -14 24 -14 40 0 68 -45 64 -105 l-3 -50 81
-3 c44 -1 94 2 110 9 33 12 33 11 -46 63 -32 20 -35 26 -34 68 1 98 114 181
192 139 26 -14 30 -74 7 -105 -28 -37 -17 -43 38 -21 15 6 17 1 17 -45 l0 -53
36 6 c37 6 94 -14 94 -33 0 -6 -38 -10 -90 -10 -104 0 -105 -1 -65 -80 32 -62
32 -105 1 -151 -14 -20 -28 -49 -32 -65 -4 -16 -24 -58 -45 -93 -48 -80 -76
-154 -97 -253 -21 -101 -6 -224 39 -313 28 -56 29 -60 12 -73 -25 -18 -127
-46 -298 -82 -289 -60 -488 -133 -684 -250 -65 -39 -134 -73 -153 -76 -30 -5
-35 -10 -35 -34 0 -34 -43 -94 -87 -121 -40 -24 -46 -24 -87 6 -117 84 -219
120 -262 92 -27 -18 -161 -207 -210 -297 -59 -107 -84 -215 -98 -412 -7 -102
-17 -184 -25 -200 -18 -36 -18 -80 1 -126 39 -92 39 -181 0 -196 -21 -8 -18
-60 6 -107 21 -43 22 -93 2 -95 -7 -1 -17 -2 -23 -3 -18 -2 -11 -32 15 -63 18
-21 25 -41 25 -72 0 -45 -16 -68 -57 -80 -12 -4 -49 -33 -81 -64 -74 -71 -87
-110 -77 -226 11 -134 40 -255 93 -391 53 -136 63 -170 83 -273 6 -34 25 -83
40 -108 20 -30 29 -58 29 -86 0 -35 -6 -46 -42 -80 -24 -21 -58 -47 -76 -57
-55 -29 -208 -163 -242 -213 -28 -41 -34 -59 -38 -123 -6 -95 5 -136 85 -310
91 -198 113 -268 114 -364 1 -89 -11 -116 -155 -371 l-77 -135 -19 -190 c-10
-104 -26 -262 -36 -350 l-17 -160 26 -123 c31 -143 28 -190 -24 -385 -17 -62
-35 -131 -41 -154 -9 -34 -6 -71 16 -210 47 -295 46 -293 70 -305 37 -20 979
-30 2056 -20 553 4 1013 12 1023 16 26 12 21 21 -30 47 -36 18 -51 33 -61 61
-14 36 -13 39 16 85 43 68 52 111 52 246 0 144 -8 152 -78 85 -26 -25 -94 -87
-151 -136 l-103 -91 -40 50 c-37 47 -41 49 -57 35 -23 -21 -49 -20 -88 3 -26
16 -33 30 -43 75 -13 63 -44 109 -69 102 -11 -4 -26 10 -50 45 -19 28 -49 62
-67 77 -40 34 -83 119 -123 245 -32 101 -38 148 -21 191 6 18 4 44 -10 93 -56
204 -61 244 -60 513 0 140 5 282 9 315 12 83 68 309 92 370 25 65 24 72 -6 79
-14 4 -25 10 -25 15 0 4 18 26 39 48 31 31 41 50 46 89 31 233 58 305 135 360
26 19 70 60 96 92 27 31 126 140 219 242 94 102 206 226 249 275 43 50 85 96
92 104 7 8 3 -20 -12 -70 -13 -45 -24 -85 -24 -87 0 -2 12 6 28 18 15 11 43
31 63 45 48 31 103 156 164 375 39 139 51 169 75 190 26 22 27 27 14 39 -17
14 -15 63 7 181 25 137 123 350 160 350 5 0 20 -18 33 -39 45 -70 101 -68 63
2 -20 38 -22 56 -22 192 l0 150 38 90 c21 50 45 112 54 139 11 36 36 71 102
140 47 51 111 121 142 157 38 43 78 77 120 100 58 31 71 34 139 33 89 -2 167
-27 257 -84 35 -21 82 -44 105 -51 59 -15 137 -55 172 -87 15 -15 60 -64 98
-110 38 -45 94 -101 125 -124 l56 -43 123 -1 c119 -1 124 0 124 20 0 34 -59
335 -81 411 -29 99 -40 125 -54 125 -30 0 -72 -77 -83 -152 -4 -31 -12 -53
-19 -53 -20 0 -87 97 -118 169 -15 36 -32 66 -36 66 -17 0 -30 -42 -23 -73 l6
-32 -22 20 c-36 32 -40 49 -28 108 10 48 9 58 -5 81 -23 35 -59 34 -87 -1 -18
-23 -21 -37 -17 -75 2 -27 2 -48 0 -48 -2 0 -20 11 -40 25 -20 13 -39 22 -42
20 -2 -3 14 -32 37 -65 23 -32 42 -62 42 -65 0 -3 -13 1 -29 10 -34 17 -86 78
-126 149 l-29 49 -18 -23 -19 -23 -6 22 c-4 14 -16 24 -35 28 -18 3 -34 15
-40 29 -15 32 -3 42 22 19 22 -20 66 -23 83 -6 9 10 6 18 -16 37 -25 21 -37
24 -116 24 l-88 0 -13 44 c-15 56 -10 80 18 84 12 2 22 5 22 7 0 3 -23 43 -51
90 -28 47 -56 102 -63 121 -6 19 -23 40 -36 47 -21 10 -29 28 -46 99 -12 50
-34 107 -52 135 -17 26 -52 92 -78 146 -43 89 -46 102 -37 130 6 18 15 52 18
77 4 25 10 49 12 53 3 5 21 -6 39 -24 28 -27 38 -31 52 -23 21 14 36 110 27
171 -6 38 -8 42 -25 33 -32 -17 -40 -11 -40 28 0 48 54 172 110 251 24 34 41
63 39 65 -7 7 -240 68 -304 80 -33 6 -71 18 -85 27 -14 10 -35 20 -46 23 -22
7 -37 34 -49 91 -10 48 -32 74 -70 81 -19 3 -35 8 -35 11 0 3 11 18 25 35 14
16 25 34 25 40 0 19 -74 -1 -119 -32 -50 -36 -74 -33 -69 7 2 20 9 29 26 31
18 3 22 10 22 40 0 44 3 48 55 87 50 36 53 40 66 93 7 23 20 47 30 53 14 7 19
21 19 49 0 44 16 52 43 22 17 -18 39 -76 52 -136 8 -37 114 -148 183 -193 29
-19 56 -43 60 -53 7 -18 11 -17 79 15 67 33 129 87 118 104 -2 5 -43 11 -91
14 -101 6 -137 25 -142 75 -4 42 20 56 171 101 168 50 165 77 -8 81 -118 3
-127 7 -147 65 -10 30 -13 54 -8 59 6 6 33 3 70 -7 113 -32 190 -13 250 62 37
46 43 47 99 25 55 -22 57 -38 11 -88 -22 -24 -40 -48 -40 -55 0 -16 36 -13
110 9 84 26 153 27 148 3 -2 -9 -17 -20 -35 -25 -30 -8 -85 -61 -169 -164 -62
-75 -31 -60 73 35 54 50 102 91 106 91 22 0 71 -47 98 -96 17 -30 35 -57 41
-60 5 -3 20 4 33 16 l23 22 12 -22 c7 -12 25 -59 41 -103 16 -45 42 -94 57
-110 23 -26 78 -57 98 -57 4 0 3 32 0 70 -6 61 -4 75 14 109 22 38 22 39 4 67
-17 25 -19 49 -19 199 l0 170 40 80 c36 72 40 89 43 168 5 120 -5 127 -62 39
-42 -67 -109 -127 -128 -116 -4 3 -8 20 -8 38 0 17 -5 37 -12 44 -18 18 -69
14 -113 -9 -84 -45 -224 -4 -360 105 -81 65 -82 65 -284 41 -142 -17 -174 -25
-250 -71 -31 -18 -57 -31 -59 -30 -1 2 2 15 7 30 14 35 4 33 -59 -14 -57 -43
-70 -48 -70 -27 0 35 72 121 195 231 35 31 36 35 14 27 -15 -5 -63 -28 -108
-50 -97 -49 -115 -51 -75 -10 33 35 98 71 164 90 25 7 50 17 57 22 7 5 47 17
90 28 42 11 88 26 101 35 17 11 47 15 105 15 128 -1 592 -20 608 -25 114 -35
191 -56 220 -61 33 -5 39 -12 75 -82 21 -43 44 -79 51 -81 26 -7 45 46 46 131
1 51 7 90 15 99 7 9 34 19 60 23 43 6 156 59 192 91 9 7 61 18 115 24 123 14
203 32 319 71 83 29 102 32 271 36 l181 6 29 -26 c22 -19 25 -26 14 -27 -35 0
-37 -23 -9 -120 48 -170 49 -163 -12 -104 -58 56 -78 67 -99 54 -12 -8 -12
-14 -1 -42 29 -70 28 -71 -9 -63 -56 12 -206 94 -239 131 -17 20 -30 46 -30
62 0 24 -3 22 -35 -26 -28 -41 -33 -56 -26 -70 10 -19 68 -72 113 -103 41 -29
13 -31 -56 -3 -36 14 -73 23 -82 20 -14 -5 -14 -10 5 -42 l21 -35 -53 -24
c-29 -12 -72 -29 -96 -36 -39 -11 -44 -11 -63 9 l-21 21 -101 -54 c-56 -29
-145 -68 -199 -86 -91 -30 -102 -32 -144 -21 -39 11 -49 10 -69 -3 -55 -36
-46 -101 44 -297 77 -167 117 -265 152 -373 30 -91 42 -106 83 -94 36 10 43
19 51 71 4 22 13 53 22 69 13 26 13 42 0 142 -8 62 -11 116 -6 120 9 11 78
-24 103 -51 17 -19 17 -22 2 -51 l-16 -32 143 -69 c78 -39 171 -79 206 -91 57
-19 66 -20 79 -6 20 20 11 33 -35 48 -54 18 -109 57 -130 93 -13 22 -32 36
-62 45 -54 16 -97 56 -80 76 6 7 26 17 43 20 119 23 122 54 18 183 -28 35 -51
73 -51 85 0 21 1 21 23 -5 29 -35 70 -54 146 -68 72 -13 102 -6 171 40 25 16
58 30 74 30 23 0 27 3 21 18 -21 50 -19 52 16 40 52 -17 61 -28 55 -62 -11
-51 -53 -95 -132 -134 -41 -20 -74 -40 -74 -44 0 -4 27 -10 60 -14 73 -8 89
-19 100 -69 16 -70 12 -119 -16 -171 -15 -27 -35 -66 -47 -87 -12 -24 -16 -42
-10 -48 15 -15 79 41 96 82 19 49 58 75 87 59 29 -16 58 5 118 83 54 71 96
115 166 174 30 25 49 49 50 63 1 16 11 25 36 34 l35 11 -3 75 c-2 41 1 88 7
103 10 27 12 27 35 12 30 -20 32 -16 51 80 8 43 17 80 20 84 18 17 84 -75 100
-142 7 -26 6 -28 -17 -22 -45 11 -51 -10 -37 -137 8 -77 9 -132 3 -168 -8 -50
-12 -57 -46 -72 -20 -10 -46 -31 -58 -48 -20 -29 -21 -35 -10 -75 15 -55 10
-345 -6 -366 -7 -8 -19 -39 -28 -70 -21 -75 -60 -129 -128 -179 -38 -29 -62
-55 -72 -81 -29 -73 -46 -40 -25 50 5 24 8 45 6 48 -3 2 -34 -17 -71 -42 -69
-47 -85 -52 -103 -34 -16 16 -44 -2 -77 -50 -32 -46 -28 -63 14 -54 27 5 30 3
30 -18 0 -13 -5 -41 -11 -63 -10 -35 -8 -40 17 -67 22 -23 25 -32 16 -41 -13
-13 -16 -56 -6 -82 8 -20 43 -20 72 0 12 8 22 13 22 10 0 -2 -16 -37 -35 -77
-45 -93 -45 -121 -1 -165 19 -19 41 -34 48 -34 25 0 46 33 63 100 11 42 34 91
65 137 26 40 63 110 80 155 36 93 75 174 89 182 4 3 12 -22 15 -56 4 -33 11
-57 16 -52 4 5 19 36 33 68 29 69 30 67 51 -74 14 -96 11 -250 -5 -250 -5 0
-9 5 -9 12 0 30 -22 -17 -68 -142 -48 -129 -56 -175 -24 -134 13 18 14 16 9
-17 -3 -20 -43 -115 -88 -210 l-83 -174 -6 -130 -5 -130 -53 -113 c-57 -123
-59 -132 -37 -132 11 0 14 -7 10 -27 -5 -24 2 -19 47 32 65 74 121 128 181
178 53 43 128 152 150 217 14 40 14 47 0 62 -8 9 -25 18 -36 20 -34 5 -47 48
-49 157 -1 94 1 105 29 159 157 303 169 342 202 642 25 222 42 318 76 422 14
40 25 86 25 101 0 35 -25 97 -41 97 -29 0 26 271 70 345 11 19 29 72 40 116
11 45 22 83 24 85 2 3 29 -26 60 -63 30 -37 72 -84 92 -103 20 -19 41 -45 46
-57 11 -29 56 -37 177 -31 73 4 109 11 145 28 57 27 71 46 91 125 41 154 0
310 -104 402 -37 33 -43 28 -36 -30 3 -30 3 -57 -1 -60 -3 -4 -30 14 -60 39
-85 73 -95 63 -142 -146 -58 -260 -59 -260 -156 -158 -59 62 -84 100 -129 190
-62 127 -102 241 -86 246 16 6 12 52 -8 80 -30 44 -34 63 -16 89 15 23 14 26
-6 48 -33 35 -7 41 46 11 44 -25 74 -33 74 -20 0 3 -18 31 -40 61 -41 57 -52
103 -25 103 14 0 89 -84 153 -172 30 -43 38 -48 72 -48 22 0 41 4 45 9 3 5
-18 37 -47 71 -84 98 -148 180 -148 191 0 5 42 -13 93 -40 115 -62 283 -129
344 -138 46 -6 46 -6 41 22 -6 27 -5 27 33 22 21 -3 58 -19 81 -36 23 -17 48
-31 55 -31 7 0 32 19 55 43 47 46 156 122 164 114 3 -3 -4 -24 -16 -47 -12
-23 -19 -44 -16 -47 3 -3 26 6 52 21 73 41 92 30 59 -34 -23 -44 -3 -36 64 25
92 86 191 245 152 245 -16 0 -47 73 -70 164 -29 115 -68 175 -162 245 -73 55
-127 81 -171 81 -23 0 -23 -12 6 -94 13 -38 22 -75 19 -82 -9 -24 -49 -27 -95
-6 -50 22 -134 94 -143 121 -4 13 20 59 75 145 93 146 150 258 150 298 0 23
-4 28 -25 28 -18 0 -28 -8 -36 -27 -26 -68 -131 -190 -198 -228 -16 -9 -13 -4
29 60 14 22 48 78 74 125 27 47 59 97 73 111 18 20 22 33 17 53 -11 47 -169
139 -201 117z m-5378 -810 c7 -12 -12 -24 -25 -16 -11 7 -4 25 10 25 5 0 11
-4 15 -9z m1583 -1553 c19 -19 14 -30 -8 -18 -11 6 -20 15 -20 20 0 14 14 12
28 -2z m-1678 -5647 c0 -12 -20 -25 -27 -18 -7 7 6 27 18 27 5 0 9 -4 9 -9z"/>
<path d="M6813 10603 c-9 -17 -32 -39 -51 -49 -39 -21 -115 -102 -161 -170
-71 -108 -27 -117 206 -42 99 32 143 63 143 100 0 18 -86 157 -114 186 -3 2
-13 -9 -23 -25z"/>
<path d="M4805 10389 c-87 -52 -388 -349 -419 -413 -29 -62 -17 -119 29 -130
13 -3 55 0 92 9 158 35 191 36 356 18 l158 -17 59 32 c71 39 130 57 231 71
130 18 239 70 239 115 0 28 -53 77 -137 126 -108 65 -278 142 -373 170 -88 27
-206 36 -235 19z"/>
<path d="M8247 8790 c-14 -16 -60 -85 -102 -152 -214 -339 -231 -362 -337
-445 -32 -24 -58 -48 -58 -53 0 -22 39 -30 92 -19 110 23 260 115 317 195 40
56 145 504 118 504 -3 0 -16 -13 -30 -30z"/>
<path d="M7410 8219 c0 -34 -8 -36 -43 -9 -34 27 -37 26 -37 -20 0 -29 -4 -40
-15 -40 -9 0 -20 -10 -25 -22 -16 -37 -58 -207 -69 -278 -14 -86 -41 -387 -41
-450 0 -56 -14 -43 180 -175 56 -38 125 -91 153 -116 l51 -47 -60 -55 c-40
-37 -74 -82 -107 -142 -64 -117 -176 -261 -279 -360 -72 -69 -94 -100 -168
-230 -105 -186 -173 -277 -281 -381 -87 -83 -234 -204 -248 -204 -4 0 -30 40
-57 90 -27 49 -52 90 -55 90 -6 0 7 -137 20 -200 9 -43 9 -44 -7 -24 -9 12
-30 43 -47 70 l-29 49 -7 -50 c-13 -93 -9 -179 16 -305 31 -153 31 -170 5
-177 -11 -3 -20 -9 -20 -13 0 -4 24 -68 54 -141 30 -74 59 -153 65 -175 18
-69 41 -250 42 -336 1 -69 -2 -85 -22 -111 -32 -43 -49 -266 -30 -395 27 -194
71 -325 131 -390 28 -30 53 -46 33 -19 -21 25 -72 175 -89 257 -29 143 -14
418 36 645 22 100 40 97 59 -9 7 -37 22 -76 39 -101 16 -22 44 -68 62 -103 18
-34 35 -60 37 -58 3 2 -7 41 -21 86 -14 44 -26 83 -26 85 0 2 9 1 20 -2 23 -6
23 -10 6 93 -7 45 -9 90 -5 102 14 39 63 28 179 -38 111 -64 188 -91 310 -110
99 -15 132 -26 201 -66 66 -39 77 -40 139 -17 58 21 77 38 85 75 5 19 18 36
37 47 16 9 73 44 126 78 80 51 98 59 105 46 12 -21 67 -243 67 -270 0 -14 -6
-23 -15 -23 -22 0 -20 -72 7 -271 21 -151 22 -203 23 -674 l0 -510 -37 -260
c-57 -397 -60 -446 -60 -890 0 -353 3 -435 21 -594 25 -217 26 -343 6 -563 -8
-90 -16 -233 -17 -318 -3 -155 -3 -156 23 -187 15 -17 30 -48 33 -67 l7 -36
547 1 c301 1 759 4 1019 8 401 5 474 8 487 21 7 8 26 58 40 110 66 235 224
709 253 760 13 23 14 18 9 -51 -6 -82 -56 -291 -130 -537 -51 -170 -56 -208
-28 -198 9 4 43 17 76 29 46 18 66 32 96 72 37 50 80 94 80 82 0 -3 -6 -36
-14 -74 -8 -37 -17 -95 -21 -127 l-7 -59 38 32 c43 35 54 38 54 16 0 -26 24
-17 78 31 94 82 176 218 217 357 9 31 20 57 23 57 4 0 13 -9 20 -21 16 -25 35
-20 42 11 3 13 12 26 19 28 11 4 13 -4 8 -37 -5 -38 -3 -41 19 -41 34 0 44
-27 60 -172 13 -122 35 -195 55 -182 4 2 10 28 14 57 4 28 12 61 16 72 10 21
5 -97 -7 -187 -8 -58 8 -69 62 -41 l37 18 -2 587 c-1 323 -6 600 -10 616 -5
16 -22 48 -39 71 -28 39 -104 216 -116 274 -7 31 2 77 15 77 5 0 9 -17 9 -37
0 -47 27 -101 89 -181 l49 -63 7 78 c4 43 18 115 31 160 13 45 27 101 30 125
8 48 23 82 52 116 29 33 33 27 17 -26 -23 -73 -20 -82 19 -82 43 0 52 -12 26
-35 -36 -33 -17 -54 49 -55 15 0 38 -15 62 -39 35 -38 39 -39 73 -30 31 9 40
7 62 -10 14 -11 32 -17 39 -15 20 8 173 212 282 379 44 66 127 249 198 435 91
237 119 287 230 408 197 216 236 300 264 581 28 273 0 495 -72 578 -32 36
-113 80 -125 68 -4 -3 -10 -83 -13 -176 -4 -94 -9 -173 -12 -175 -2 -2 -15 31
-28 73 -28 92 -29 176 -5 332 32 208 16 391 -60 681 -43 166 -81 262 -135 343
-58 86 -86 115 -140 142 -97 50 -154 183 -224 518 -19 91 -48 131 -107 149
-49 15 -56 24 -113 173 -54 140 -93 204 -179 289 -89 87 -194 140 -291 144
-96 5 -137 -14 -254 -117 -51 -44 -98 -81 -105 -81 -8 0 -54 29 -103 63 -159
113 -362 237 -444 271 -46 19 -151 40 -349 70 -91 14 -210 39 -265 56 -270 86
-431 106 -579 75 -65 -14 -72 -13 -113 5 -49 21 -197 131 -286 210 -77 69
-106 115 -167 256 -145 338 -356 626 -476 649 -24 4 -44 19 -71 53 -101 126
-186 187 -305 220 -38 10 -38 10 -38 -19z"/>
<path d="M5580 7949 c0 -6 14 -29 31 -51 33 -40 58 -97 59 -133 1 -19 1 -19
11 -2 26 45 -36 197 -81 197 -11 0 -20 -5 -20 -11z"/>
<path d="M5040 7871 c-12 -24 -14 -218 -1 -225 9 -6 43 28 60 61 19 38 14 127
-10 157 -24 31 -35 33 -49 7z"/>
<path d="M5655 7640 c-3 -5 -9 -49 -12 -96 -6 -86 -6 -87 15 -82 45 12 21 -34
-43 -82 -29 -22 -57 -54 -72 -85 -31 -61 -91 -145 -104 -145 -6 0 -32 22 -59
49 -33 33 -51 60 -55 85 -4 20 -10 36 -14 36 -4 0 -30 18 -60 40 -47 35 -91
52 -91 34 0 -3 10 -19 21 -36 l22 -30 -24 7 c-13 4 -64 25 -114 46 -49 22 -93
39 -96 39 -4 0 -41 -27 -83 -59 -42 -33 -82 -61 -88 -63 -28 -10 9 -63 114
-164 291 -278 320 -295 482 -276 116 14 158 27 195 58 52 43 78 101 85 189 4
56 14 97 35 141 28 59 98 150 109 139 3 -2 -14 -48 -38 -100 -31 -70 -40 -99
-32 -107 17 -17 64 41 120 148 l49 93 -35 33 c-19 18 -45 56 -58 85 -20 45
-29 53 -62 62 -21 6 -47 20 -57 31 -20 22 -40 26 -50 10z"/>
<path d="M4212 7108 c-16 -21 -47 -311 -36 -348 5 -17 14 -32 19 -33 16 -3 86
221 92 297 5 60 3 71 -12 83 -23 16 -49 17 -63 1z"/>
<path d="M6017 6670 c-95 -12 -115 -58 -34 -75 18 -4 78 -22 134 -41 145 -48
163 -45 163 26 0 42 -9 59 -39 75 -35 17 -150 26 -224 15z"/>
<path d="M5737 6624 c-33 -18 -31 -38 4 -42 27 -3 83 34 74 49 -9 14 -46 10
-78 -7z"/>
<path d="M5620 6603 c-29 -9 -136 -18 -305 -24 -166 -7 -283 -16 -325 -26 -36
-8 -110 -18 -165 -22 -58 -4 -116 -14 -137 -24 -21 -9 -50 -17 -66 -17 -16 0
-31 -3 -35 -6 -9 -10 20 -61 38 -68 27 -10 105 -6 190 9 105 19 135 19 135 0
0 -8 8 -24 18 -34 9 -11 25 -31 35 -46 21 -29 40 -38 137 -67 l65 -19 -175 5
-175 5 105 -54 c58 -29 134 -61 168 -71 35 -10 66 -23 69 -31 3 -7 -10 -41
-29 -75 -19 -35 -38 -75 -41 -90 -4 -15 -27 -43 -52 -64 -48 -39 -60 -74 -25
-74 25 0 70 22 187 93 95 58 146 78 177 68 16 -6 13 -13 -28 -61 -49 -57 -55
-79 -30 -104 37 -37 88 -14 214 97 25 21 97 64 160 94 183 88 243 139 210 178
-18 22 -22 20 -84 -31 -66 -54 -71 -43 -24 54 23 49 57 93 130 168 54 55 98
106 98 112 0 19 -24 14 -63 -12 -39 -27 -47 -25 -47 14 0 35 -17 50 -59 50
-47 0 -117 -42 -216 -129 l-80 -71 -150 1 c-159 0 -292 12 -309 29 -7 7 16 10
67 10 42 0 77 4 77 8 0 10 -45 32 -65 32 -8 0 -15 5 -15 10 0 6 58 10 153 10
83 0 168 5 189 10 40 11 99 70 125 126 22 45 9 55 -47 37z"/>
<path d="M6130 6127 c0 -37 32 -243 39 -250 23 -23 26 82 5 181 -9 44 13 42
32 -3 9 -22 14 -70 14 -135 0 -55 4 -100 8 -100 9 0 32 80 32 114 0 54 10 60
46 25 66 -64 57 8 -11 80 -43 46 -116 91 -149 91 -9 0 -16 -1 -16 -3z"/>
<path d="M4460 5517 c0 -27 29 -61 70 -82 21 -11 30 -23 30 -40 0 -13 5 -36
12 -50 10 -23 9 -33 -12 -71 l-23 -45 33 -68 c29 -60 32 -76 28 -129 -3 -46
-11 -71 -33 -102 -41 -59 -58 -66 -95 -38 -26 19 -34 20 -50 10 -11 -7 -23
-12 -26 -12 -15 0 6 156 32 232 l27 82 -23 18 c-46 37 -94 10 -130 -74 -27
-62 -38 -188 -21 -258 11 -51 7 -62 -14 -34 -23 30 -44 101 -51 169 -6 56 -3
68 25 125 l30 64 -50 53 c-54 58 -54 56 -5 122 14 19 26 40 26 47 0 7 -21 30
-46 50 -55 46 -59 42 -67 -69 -9 -121 -40 -198 -69 -169 -9 9 -9 35 0 113 7
56 11 104 9 106 -3 2 -32 -17 -65 -41 -85 -63 -95 -86 -90 -207 l3 -98 -37 36
c-28 28 -41 34 -49 26 -19 -19 -3 -56 59 -140 100 -135 123 -172 129 -208 5
-33 4 -35 -26 -41 -29 -6 -32 -10 -29 -38 3 -27 0 -31 -24 -34 -34 -4 -35 -15
-3 -36 37 -24 75 -69 75 -88 0 -37 -59 -36 -199 1 -99 27 -156 23 -201 -16
-29 -24 -31 -29 -28 -87 3 -58 4 -61 31 -64 27 -3 35 -16 17 -27 -5 -3 -10
-11 -10 -17 0 -7 16 -8 53 -2 80 13 211 9 327 -11 132 -22 171 -40 182 -81 12
-46 121 -94 238 -105 47 -4 101 -11 120 -14 30 -6 42 -1 89 34 73 54 166 85
261 85 65 0 114 -11 360 -83 157 -45 318 -93 358 -107 100 -33 202 -81 202
-94 0 -20 -34 -24 -78 -8 -24 9 -50 14 -58 11 -13 -5 -39 -39 -59 -78 -25 -48
-118 -64 -387 -65 l-177 0 -158 78 c-87 43 -193 93 -236 112 -75 33 -79 33
-130 20 -28 -7 -63 -21 -76 -31 -18 -14 -41 -19 -91 -19 -92 0 -132 -9 -137
-32 -5 -15 -15 -18 -66 -18 l-60 0 39 -31 c22 -17 54 -38 71 -47 30 -14 32
-17 17 -33 -14 -16 -14 -18 3 -27 10 -5 52 -12 93 -15 110 -9 307 -67 295 -87
-3 -5 -34 -19 -68 -32 l-62 -23 50 -6 c28 -4 93 -12 145 -19 52 -6 192 -27
310 -45 118 -19 271 -41 340 -50 69 -10 129 -21 133 -25 5 -4 -7 -19 -27 -33
l-37 -24 24 -16 c99 -65 74 -83 -137 -98 -196 -14 -203 -15 -218 -47 -7 -15
-20 -27 -28 -28 -8 0 -40 -6 -70 -13 -74 -17 -165 -10 -283 22 -113 31 -257
47 -257 28 0 -23 -30 -22 -82 2 -29 13 -78 32 -108 42 -113 36 -233 94 -272
132 -46 45 -88 125 -88 169 0 50 59 119 120 139 27 9 52 20 55 25 10 16 -25
31 -90 37 -53 5 -63 8 -49 16 25 14 34 27 34 55 0 16 -6 22 -23 22 -47 0 -124
50 -183 118 -67 79 -113 122 -131 122 -10 0 -13 -21 -13 -77 l0 -78 -36 43
c-35 41 -57 55 -50 30 3 -7 7 -26 11 -43 l7 -30 -24 23 c-29 27 -44 28 -57 5
-20 -39 -52 -222 -58 -337 -5 -106 -3 -133 17 -216 20 -81 24 -122 24 -281 1
-170 -1 -189 -18 -208 -15 -17 -16 -23 -6 -36 7 -8 18 -15 26 -15 28 0 24 -23
-10 -55 -35 -32 -36 -34 -36 -108 0 -78 -8 -94 -42 -89 -15 3 -18 -4 -18 -42
0 -25 7 -66 16 -92 12 -35 13 -53 5 -70 -7 -17 -6 -25 5 -34 22 -19 17 -48 -8
-52 -22 -3 -23 -8 -23 -83 l0 -80 -37 0 c-50 0 -68 -18 -43 -45 14 -16 17 -30
12 -72 -6 -49 -20 -78 -32 -66 -3 3 -23 86 -45 184 -21 98 -55 245 -74 326
-43 178 -60 350 -53 518 6 132 -3 313 -16 326 -19 19 -31 -27 -53 -198 -32
-253 -39 -401 -25 -528 16 -134 58 -385 72 -429 17 -49 29 -21 29 68 0 41 2
72 4 70 3 -3 25 -80 51 -173 25 -93 57 -203 72 -245 52 -152 144 -354 198
-432 51 -74 55 -84 55 -137 0 -66 -88 -472 -119 -550 -11 -29 -32 -75 -46
-102 -33 -65 -32 -74 5 -55 17 9 72 68 124 133 104 131 172 199 261 259 62 42
185 163 185 182 0 19 -20 12 -67 -24 -54 -41 -63 -43 -63 -12 0 27 16 52 87
134 61 71 86 83 114 57 10 -9 20 -15 22 -13 1 2 17 20 35 40 23 25 37 55 48
98 17 75 72 211 85 211 5 0 9 -22 9 -49 0 -61 17 -114 29 -91 5 8 14 69 21
135 22 220 78 434 116 449 52 20 79 -49 206 -538 11 -41 21 -55 61 -84 26 -19
51 -41 56 -50 8 -14 11 -14 26 -2 23 19 18 41 -55 300 -67 235 -105 342 -179
504 -49 106 -54 130 -28 120 18 -6 158 -254 190 -334 48 -122 147 -504 147
-567 -1 -59 -22 -135 -39 -141 -5 -2 -49 -28 -98 -58 -126 -78 -295 -161 -377
-184 -39 -11 -87 -28 -106 -36 -126 -57 -340 -267 -340 -335 0 -55 8 -50 222
150 21 19 40 32 43 29 6 -6 -86 -112 -285 -328 -248 -269 -280 -312 -280 -372
0 -24 5 -41 14 -44 22 -9 121 48 221 126 49 39 92 67 96 63 4 -5 9 -33 11 -63
l3 -55 43 39 c23 21 42 34 42 29 0 -15 -101 -108 -176 -161 -39 -28 -83 -69
-99 -91 -21 -31 -36 -42 -64 -46 -20 -4 -48 -9 -62 -11 l-27 -5 17 -46 c14
-40 22 -48 51 -56 48 -12 186 6 239 32 54 25 50 25 44 2 -3 -13 2 -20 18 -24
13 -4 493 -9 1068 -13 l1044 -7 -6 60 c-9 85 -78 290 -131 387 -24 45 -47 95
-50 112 -4 17 -18 46 -30 63 -21 28 -22 36 -13 66 9 32 7 38 -26 81 -20 26
-46 72 -57 103 -38 101 -77 284 -90 421 -13 136 -12 169 8 270 6 30 16 222 22
425 16 542 27 725 51 871 26 151 23 166 -41 229 l-38 37 39 60 c39 62 144 362
137 396 -2 9 -15 23 -30 30 l-27 13 62 80 c34 44 95 121 135 172 40 50 77 108
82 129 6 20 18 40 28 43 15 5 95 154 121 228 14 36 -4 36 -41 0 l-29 -28 16
37 c22 54 20 61 -15 53 -22 -5 -30 -3 -30 7 0 21 21 38 47 38 21 0 23 4 23 50
0 51 12 64 38 38 9 -9 12 -9 12 3 0 8 -25 37 -55 63 -33 28 -55 55 -55 67 0
11 22 44 48 72 69 74 82 96 82 142 0 99 -69 290 -109 303 -15 5 -13 -11 7 -75
9 -27 8 -33 -4 -33 -10 0 -14 -12 -14 -44 0 -48 -8 -58 -62 -75 -20 -7 -42
-19 -48 -27 -32 -38 -57 -3 -86 119 -17 75 -18 77 -48 77 -57 0 -63 13 -32 62
16 24 40 55 53 70 35 37 24 47 -44 36 -142 -21 -175 -40 -225 -127 l-26 -43
-12 72 c-7 39 -15 68 -19 63 -4 -4 -24 -30 -45 -56 -53 -67 -77 -74 -133 -41
-25 14 -46 24 -48 22 -2 -1 15 -59 38 -127 47 -141 53 -148 166 -176 150 -37
197 -55 230 -87 32 -32 33 -34 29 -99 -5 -63 -28 -125 -76 -204 -17 -28 -23
-30 -85 -33 l-67 -3 6 43 c4 24 8 50 8 58 1 16 -6 16 -139 5 -80 -8 -361 32
-468 65 -65 20 -194 100 -204 126 -3 8 7 47 22 87 21 56 28 95 32 179 5 96 3
116 -21 192 -32 103 -32 104 -1 116 33 13 29 20 -68 131 -72 83 -143 149 -159
149 -5 0 -8 -10 -8 -23z m139 -286 c6 -10 7 -21 4 -25 -9 -8 -33 14 -33 30 0
20 18 17 29 -5z"/>
<path d="M4770 5451 c0 -27 48 -290 59 -322 7 -19 3 -34 -15 -65 -13 -21 -24
-51 -24 -66 0 -31 48 -91 90 -113 23 -12 30 -12 49 1 11 8 28 28 36 44 17 32
21 130 5 130 -22 0 -62 84 -96 201 -34 120 -75 209 -94 209 -6 0 -10 -9 -10
-19z"/>
<path d="M5000 5210 c0 -5 19 -52 42 -102 48 -108 61 -192 35 -232 -18 -27
-10 -40 33 -51 44 -11 64 22 57 94 -6 71 -40 150 -103 237 -42 60 -64 78 -64
54z"/>
<path d="M6070 5192 c0 -7 8 -30 18 -51 27 -54 172 -290 184 -297 17 -11 21 5
9 34 -17 40 -211 330 -211 314z"/>
<path d="M6146 4438 c-46 -62 -43 -136 4 -93 21 19 43 105 31 118 -5 5 -20 -7
-35 -25z"/>
<path d="M6150 4048 c1 -50 21 -163 32 -173 8 -7 9 12 4 70 -7 90 -14 125 -27
125 -5 0 -9 -10 -9 -22z"/>
<path d="M5894 3709 c-4 -7 16 -31 49 -61 59 -51 71 -77 82 -168 10 -80 32
-165 66 -246 28 -68 62 -114 75 -101 10 10 -73 380 -96 430 -15 32 -42 62 -84
95 -79 62 -83 64 -92 51z"/>
<path d="M6380 3570 c0 -24 34 -92 51 -100 22 -12 169 -13 169 -1 0 9 -42 31
-152 80 -38 16 -68 26 -68 21z"/>
<path d="M6202 3054 c4 -20 34 -41 44 -31 8 8 -24 47 -38 47 -5 0 -8 -7 -6
-16z"/>
<path d="M6130 2978 c0 -7 7 -38 15 -68 19 -71 19 -120 1 -120 -8 0 -17 12
-20 27 -19 75 -146 195 -146 138 0 -8 11 -54 25 -101 41 -143 29 -195 -50
-210 -19 -3 -35 -11 -35 -16 0 -6 26 -36 59 -68 94 -92 186 -124 226 -80 25
28 36 25 75 -15 66 -68 88 -45 134 139 26 102 32 144 26 162 -11 28 -36 31
-63 7 -17 -16 -19 -16 -28 -1 -5 9 -34 24 -64 33 -61 17 -68 33 -35 75 28 36
25 47 -15 54 -19 4 -48 18 -64 31 -33 28 -41 31 -41 13z"/>
<path d="M12453 2923 c-41 -70 -113 -296 -188 -588 -80 -314 -109 -404 -178
-549 -60 -126 -123 -229 -220 -363 -86 -121 -93 -133 -76 -144 8 -5 30 -9 50
-9 25 0 43 -7 59 -25 22 -23 23 -29 13 -63 -5 -20 -14 -45 -18 -54 -26 -62
183 37 318 149 68 57 110 118 182 268 139 288 204 596 221 1061 8 204 4 231
-30 240 -15 3 -27 16 -31 32 -7 30 -51 92 -65 92 -5 0 -22 -21 -37 -47z"/>
<path d="M6310 2907 c0 -33 4 -39 40 -57 23 -11 45 -18 50 -15 18 11 10 34
-17 52 -16 9 -38 26 -50 37 l-23 19 0 -36z"/>
<path d="M3342 2850 c0 -14 2 -19 5 -12 2 6 2 18 0 25 -3 6 -5 1 -5 -13z"/>
<path d="M5980 2711 c0 -12 6 -21 15 -21 8 0 15 4 15 9 0 5 -7 14 -15 21 -13
10 -15 9 -15 -9z"/>
<path d="M4489 1449 c-89 -42 -126 -79 -81 -79 20 0 135 70 147 90 13 22 -1
19 -66 -11z"/>
</g>
</svg>
